<svg xmlns="http://www.w3.org/2000/svg" viewBox="0 0 297.99 89.93"><defs><style>.cls-1{fill:#ffbf0f;}</style></defs><g id="Capa_2" data-name="Capa 2"><g id="Capa_2-2" data-name="Capa 2"><path d="M1.63,15.9a11.7,11.7,0,0,1,4.55-4.6A13.22,13.22,0,0,1,12.8,9.65,12.63,12.63,0,0,1,20.56,12a11.54,11.54,0,0,1,4.32,6.53H18.06a5.46,5.46,0,0,0-2.16-2.43,6,6,0,0,0-3.17-.84,5.92,5.92,0,0,0-4.64,2,7.7,7.7,0,0,0-1.78,5.33A7.7,7.7,0,0,0,8.09,28a5.92,5.92,0,0,0,4.64,2,6,6,0,0,0,3.17-.84,5.57,5.57,0,0,0,2.16-2.43h6.82a11.43,11.43,0,0,1-4.32,6.51,12.76,12.76,0,0,1-7.76,2.38,13.22,13.22,0,0,1-6.62-1.65,11.74,11.74,0,0,1-4.55-4.59A13.58,13.58,0,0,1,0,22.63,13.68,13.68,0,0,1,1.63,15.9Z"/><path d="M34.14,34a12.5,12.5,0,0,1-4.75-4.66,13,13,0,0,1-1.76-6.73,13,13,0,0,1,1.76-6.71,12.52,12.52,0,0,1,4.75-4.64,13.82,13.82,0,0,1,13.17,0A12.28,12.28,0,0,1,52,15.88a13.14,13.14,0,0,1,1.72,6.71A13.13,13.13,0,0,1,52,29.32,12.4,12.4,0,0,1,47.29,34a13.78,13.78,0,0,1-13.15,0ZM45.6,28a7.7,7.7,0,0,0,1.83-5.37,7.68,7.68,0,0,0-1.83-5.38,6.27,6.27,0,0,0-4.88-2,6.34,6.34,0,0,0-4.91,2A7.68,7.68,0,0,0,34,22.59,7.7,7.7,0,0,0,35.81,28a6.32,6.32,0,0,0,4.91,2A6.25,6.25,0,0,0,45.6,28Z"/><path d="M86,9.94V35.39h-6.2V20.13l-5.7,15.26h-5l-5.73-15.3v15.3h-6.2V9.94h7.32l7.15,17.62L78.73,9.94Z"/><path d="M96.57,9.94V25.17a5.06,5.06,0,0,0,1.13,3.52,4.25,4.25,0,0,0,3.3,1.23,4.35,4.35,0,0,0,3.33-1.23,4.93,4.93,0,0,0,1.16-3.52V9.94h6.21V25.13a10.88,10.88,0,0,1-1.45,5.77,9.34,9.34,0,0,1-3.9,3.55,12.29,12.29,0,0,1-5.46,1.2,11.93,11.93,0,0,1-5.39-1.18,8.84,8.84,0,0,1-3.75-3.55,11.38,11.38,0,0,1-1.38-5.79V9.94Z"/><path d="M138.82,35.39h-6.2l-10.37-15.7v15.7h-6.2V9.94h6.2l10.37,15.77V9.94h6.2Z"/><path d="M149.52,9.94V35.39h-6.2V9.94Z"/><path d="M154.6,15.9a11.57,11.57,0,0,1,4.55-4.6,13.19,13.19,0,0,1,6.62-1.65A12.63,12.63,0,0,1,173.53,12a11.48,11.48,0,0,1,4.31,6.53H171a5.39,5.39,0,0,0-2.15-2.43,6,6,0,0,0-3.18-.84,5.93,5.93,0,0,0-4.64,2,7.75,7.75,0,0,0-1.78,5.33A7.75,7.75,0,0,0,161.05,28a5.93,5.93,0,0,0,4.64,2,6,6,0,0,0,3.18-.84A5.49,5.49,0,0,0,171,26.69h6.82a11.36,11.36,0,0,1-4.31,6.51,12.76,12.76,0,0,1-7.76,2.38,13.19,13.19,0,0,1-6.62-1.65,11.61,11.61,0,0,1-4.55-4.59A13.58,13.58,0,0,1,153,22.63,13.69,13.69,0,0,1,154.6,15.9Z"/><path d="M197.5,30.9H188l-1.53,4.49H180l9.21-25.45h7.18l9.21,25.45H199Zm-1.6-4.79-3.15-9.32-3.12,9.32Z"/><path d="M209,15.9a11.57,11.57,0,0,1,4.55-4.6,13.19,13.19,0,0,1,6.62-1.65A12.63,12.63,0,0,1,227.89,12a11.48,11.48,0,0,1,4.31,6.53h-6.81a5.46,5.46,0,0,0-2.16-2.43,6,6,0,0,0-3.18-.84,5.93,5.93,0,0,0-4.64,2,7.74,7.74,0,0,0-1.77,5.33A7.74,7.74,0,0,0,215.41,28a5.93,5.93,0,0,0,4.64,2,6,6,0,0,0,3.18-.84,5.57,5.57,0,0,0,2.16-2.43h6.81a11.36,11.36,0,0,1-4.31,6.51,12.76,12.76,0,0,1-7.76,2.38,13.19,13.19,0,0,1-6.62-1.65A11.61,11.61,0,0,1,209,29.34a13.58,13.58,0,0,1-1.63-6.71A13.68,13.68,0,0,1,209,15.9Z"/><path d="M242.21,9.94V35.39H236V9.94Z"/><path d="M252.17,34a12.43,12.43,0,0,1-4.75-4.66,13,13,0,0,1-1.76-6.73,12.88,12.88,0,0,1,1.76-6.71,12.45,12.45,0,0,1,4.75-4.64,13.8,13.8,0,0,1,13.16,0A12.14,12.14,0,0,1,270,15.88a13.15,13.15,0,0,1,1.73,6.71A13.13,13.13,0,0,1,270,29.32,12.42,12.42,0,0,1,265.31,34a13.76,13.76,0,0,1-13.14,0Zm11.46-6a7.7,7.7,0,0,0,1.83-5.37,7.68,7.68,0,0,0-1.83-5.38,6.28,6.28,0,0,0-4.88-2,6.36,6.36,0,0,0-4.92,2,7.68,7.68,0,0,0-1.83,5.4A7.7,7.7,0,0,0,253.83,28a6.34,6.34,0,0,0,4.92,2A6.26,6.26,0,0,0,263.63,28ZM263,4.82l-8.74,3.67V4.21L263,0Z"/><path d="M298,35.39h-6.2l-10.38-15.7v15.7h-6.2V9.94h6.2l10.38,15.77V9.94H298Z"/><path d="M46.34,44.87V89.48H43.48V44.87Z"/><path d="M62.16,88.4a12.45,12.45,0,0,1-5-4.13,11.45,11.45,0,0,1-2.06-5.78h3a10.76,10.76,0,0,0,3.28,6.22c1.84,1.83,4.64,2.74,8.42,2.74a12.79,12.79,0,0,0,5.75-1.21,9.18,9.18,0,0,0,3.78-3.3,8.48,8.48,0,0,0,1.33-4.64A8,8,0,0,0,79,73.15a9.69,9.69,0,0,0-3.88-2.86,55.4,55.4,0,0,0-6.26-2,52,52,0,0,1-7-2.29,11,11,0,0,1-4.45-3.53,10.51,10.51,0,0,1-1.81-6.51,10.62,10.62,0,0,1,1.68-5.82A11.66,11.66,0,0,1,62.16,46a16.1,16.1,0,0,1,7.18-1.53,14.74,14.74,0,0,1,9.54,2.93,11.43,11.43,0,0,1,4.32,7.18h-3A9.61,9.61,0,0,0,78.46,51a9.85,9.85,0,0,0-3.68-3,12.81,12.81,0,0,0-5.69-1.18,11.6,11.6,0,0,0-7.5,2.45,7.93,7.93,0,0,0-3.05,6.51A7.91,7.91,0,0,0,60.13,61,10,10,0,0,0,64,64a46.87,46.87,0,0,0,6.26,2,54.91,54.91,0,0,1,7,2.32,10.89,10.89,0,0,1,4.38,3.49,10.4,10.4,0,0,1,1.81,6.45,10.87,10.87,0,0,1-1.59,5.66,11.86,11.86,0,0,1-4.67,4.35,15.37,15.37,0,0,1-7.46,1.69A17.55,17.55,0,0,1,62.16,88.4Z"/><path d="M94.64,44.87v27.9q0,7.56,3.43,11.09t9.34,3.52q5.85,0,9.21-3.49T120,72.77V44.87h2.86V72.7q0,8.72-4.19,13t-11.25,4.26q-7.05,0-11.34-4.29T91.78,72.7V44.87Z"/><polygon class="cls-1" points="17.86 87.97 15.36 80.48 29.91 44.85 36.02 44.85 17.86 87.97"/><polygon points="34.55 44.85 37.19 44.85 20.01 89.63 17.35 89.63 0.17 44.85 2.81 44.85 15.72 78.47 28.63 44.85 31.27 44.85 17.04 81.92 18.68 86.19 34.55 44.85"/><rect class="cls-1" x="173.02" y="45.01" width="5.58" height="42.95"/><path d="M174.31,87.18H190.9V89.6H171.45V45h2.86Z"/><path d="M179.74,87.18h18.87V89.6H176.88V45h2.86Z"/><polygon class="cls-1" points="145.63 46.62 143.13 54.11 157.68 89.75 163.79 89.75 145.63 46.62"/><polygon points="162.31 89.75 164.96 89.75 147.77 44.96 145.12 44.96 127.93 89.75 130.58 89.75 143.49 56.12 156.39 89.75 159.04 89.75 144.81 52.67 146.45 48.41 162.31 89.75"/></g></g></svg>