<svg xmlns="http://www.w3.org/2000/svg" viewBox="0 0 480.93 81.81"><defs><style>.cls-1{fill:#ffbf0f;}</style></defs><g id="Capa_2" data-name="Capa 2"><g id="Capa_2-2" data-name="Capa 2"><path d="M29.85.29V25.75h-6.2V10.48L18,25.75H13L7.22,10.44V25.75H1V.29H8.35l7.14,17.63L22.56.29Z"/><path d="M50.16,21.25h-9.5l-1.53,4.5H32.64L41.85.29H49l9.21,25.46H51.68Zm-1.6-4.79L45.41,7.14l-3.12,9.32Z"/><path d="M74,25.75l-5.29-9.61H67.24v9.61H61V.29H71.45a11.5,11.5,0,0,1,5.13,1.05,7.25,7.25,0,0,1,3.17,2.88,8.1,8.1,0,0,1,1,4.08,7.55,7.55,0,0,1-1.43,4.54,7.71,7.71,0,0,1-4.22,2.83L81,25.75Zm-6.78-14h3.84a3.55,3.55,0,0,0,2.56-.83,3.16,3.16,0,0,0,.85-2.36,3.06,3.06,0,0,0-.85-2.29,3.55,3.55,0,0,0-2.56-.83H67.24Z"/><path d="M99.44,25.75,90.88,14.51V25.75h-6.2V.29h6.2V11.46L99.37.29h7.29L96.79,12.77l10.23,13Z"/><path d="M116.16,5.26v5.15h8.3V15.2h-8.3v5.58h9.39v5H110V.29h15.59v5Z"/><path d="M147.89.29v5h-6.74V25.75H135V5.26H128.2v-5Z"/><path d="M157.21.29V25.75H151V.29Z"/><path d="M184.48,25.75h-6.2L167.91,10V25.75h-6.2V.29h6.2l10.37,15.78V.29h6.2Z"/><path d="M205.88,8.34a4.69,4.69,0,0,0-2-1.94,6.41,6.41,0,0,0-3-.67,6.24,6.24,0,0,0-4.83,2A7.46,7.46,0,0,0,194.24,13a7.6,7.6,0,0,0,1.9,5.5,7,7,0,0,0,5.24,2,6.27,6.27,0,0,0,3.86-1.16A6.55,6.55,0,0,0,207.55,16h-7.87V11.39h13.49v5.76a12.18,12.18,0,0,1-2.34,4.32,12.35,12.35,0,0,1-4.19,3.23,13,13,0,0,1-5.73,1.23,13.59,13.59,0,0,1-6.73-1.65,11.74,11.74,0,0,1-4.6-4.59A13.46,13.46,0,0,1,187.93,13a13.55,13.55,0,0,1,1.65-6.72,11.76,11.76,0,0,1,4.59-4.61A13.43,13.43,0,0,1,200.88,0a13.06,13.06,0,0,1,7.7,2.21,10.43,10.43,0,0,1,4.15,6.13Z"/><polygon class="cls-1" points="218.34 38.73 218.34 48.2 241.3 80.74 247.98 80.74 218.34 38.73"/><rect class="cls-1" x="455.34" y="36.55" width="5.58" height="42.95"/><path d="M456.63,78.72h16.59v2.42H453.77V36.53h2.86Z"/><path d="M462.06,78.72h18.87v2.42H459.2V36.53h2.86Z"/><polygon class="cls-1" points="427.95 38.16 425.45 45.66 440 81.29 446.11 81.29 427.95 38.16"/><polygon points="444.63 81.29 447.28 81.29 430.09 36.5 427.44 36.5 410.25 81.29 412.9 81.29 425.81 47.66 438.71 81.29 441.36 81.29 427.13 44.21 428.76 39.95 444.63 81.29"/><polygon class="cls-1" points="156.56 79.63 154.06 72.14 168.61 36.5 174.72 36.5 156.56 79.63"/><polygon points="173.25 36.5 175.9 36.5 158.71 81.29 156.05 81.29 138.87 36.5 141.51 36.5 154.42 70.13 167.33 36.5 169.97 36.5 155.75 73.58 157.38 77.84 173.25 36.5"/><path d="M2.76,47.27a20.54,20.54,0,0,1,18.53-11A22.28,22.28,0,0,1,34.13,39.8a20.46,20.46,0,0,1,7.62,10h-3.3a16.29,16.29,0,0,0-6.33-8,19,19,0,0,0-10.83-3A18.19,18.19,0,0,0,12,41.23a17.17,17.17,0,0,0-6.61,7.06A22.87,22.87,0,0,0,2.92,59.06,22.34,22.34,0,0,0,5.34,69.7a17.53,17.53,0,0,0,6.61,7,18,18,0,0,0,9.34,2.47,19,19,0,0,0,10.83-3,16.29,16.29,0,0,0,6.33-8h3.3a20.46,20.46,0,0,1-7.62,10,22.28,22.28,0,0,1-12.84,3.56,20.89,20.89,0,0,1-10.9-2.9,20.27,20.27,0,0,1-7.63-8.07A24.52,24.52,0,0,1,0,59.06,24.66,24.66,0,0,1,2.76,47.27Z"/><path d="M59.48,78.92a20.26,20.26,0,0,1-7.75-8.11,24.38,24.38,0,0,1-2.8-11.75,24.34,24.34,0,0,1,2.8-11.79,20.34,20.34,0,0,1,7.75-8.07,22.84,22.84,0,0,1,22.24,0,20.37,20.37,0,0,1,7.76,8.07,24.45,24.45,0,0,1,2.79,11.79,24.48,24.48,0,0,1-2.79,11.75,20.28,20.28,0,0,1-7.76,8.11,22.84,22.84,0,0,1-22.24,0Zm20.65-2.13a17.51,17.51,0,0,0,6.71-7.06,22.26,22.26,0,0,0,2.45-10.67,22.46,22.46,0,0,0-2.45-10.74,17.49,17.49,0,0,0-6.71-7,19.55,19.55,0,0,0-19.06,0,17.76,17.76,0,0,0-6.74,7,22.24,22.24,0,0,0-2.47,10.74,22,22,0,0,0,2.47,10.67,17.78,17.78,0,0,0,6.74,7.06,19.55,19.55,0,0,0,19.06,0Z"/><polygon points="248.97 36.1 246.11 36.1 246.11 75.88 219.93 36.1 217.07 36.1 217.07 80.65 219.93 80.65 219.93 51.69 238.99 80.74 242.1 80.74 219.93 47.05 219.93 40.74 246.11 80.74 248.97 80.74 248.97 80.74 248.97 80.74 248.97 36.1"/><polygon class="cls-1" points="101.05 38.73 101.05 48.2 124.01 80.74 130.69 80.74 101.05 38.73"/><polygon points="131.68 36.1 128.82 36.1 128.82 75.88 102.64 36.1 99.78 36.1 99.78 80.65 102.64 80.65 102.64 51.69 121.7 80.74 124.81 80.74 102.64 47.05 102.64 40.74 128.82 80.74 131.68 80.74 131.68 80.74 131.68 80.74 131.68 36.1"/><polygon class="cls-1" points="373.41 38.73 373.41 48.2 396.37 80.74 403.05 80.74 373.41 38.73"/><polygon points="404.05 36.1 401.19 36.1 401.19 75.88 375 36.1 372.14 36.1 372.14 80.65 375 80.65 375 51.69 394.06 80.74 397.18 80.74 375 47.05 375 40.74 401.19 80.74 404.05 80.74 404.05 80.74 404.05 80.74 404.05 36.1"/><path d="M260.44,47.27a20.52,20.52,0,0,1,7.62-8.1A20.77,20.77,0,0,1,279,36.24,22.26,22.26,0,0,1,291.8,39.8a20.47,20.47,0,0,1,7.63,10h-3.31a16.33,16.33,0,0,0-6.32-8,19.07,19.07,0,0,0-10.84-3,18.21,18.21,0,0,0-9.34,2.44A17.17,17.17,0,0,0,263,48.29a22.87,22.87,0,0,0-2.41,10.77A22.33,22.33,0,0,0,263,69.7a17.53,17.53,0,0,0,6.61,7A18,18,0,0,0,279,79.2a19.07,19.07,0,0,0,10.84-3,16.33,16.33,0,0,0,6.32-8h3.31a20.47,20.47,0,0,1-7.63,10A22.26,22.26,0,0,1,279,81.75a20.94,20.94,0,0,1-10.9-2.9,20.17,20.17,0,0,1-7.62-8.07,24.53,24.53,0,0,1-2.77-11.72A24.67,24.67,0,0,1,260.44,47.27Z"/><path d="M311.24,36.69V81.3h-2.85V36.69Z"/><path d="M330.5,78.92a20.19,20.19,0,0,1-7.75-8.11A24.38,24.38,0,0,1,320,59.06a24.34,24.34,0,0,1,2.8-11.79,20.28,20.28,0,0,1,7.75-8.07,22.84,22.84,0,0,1,22.24,0,20.28,20.28,0,0,1,7.75,8.07,24.34,24.34,0,0,1,2.8,11.79,24.38,24.38,0,0,1-2.8,11.75,20.19,20.19,0,0,1-7.75,8.11,22.84,22.84,0,0,1-22.24,0Zm20.65-2.13a17.51,17.51,0,0,0,6.71-7.06,22.26,22.26,0,0,0,2.44-10.67,22.46,22.46,0,0,0-2.44-10.74,17.49,17.49,0,0,0-6.71-7,19.55,19.55,0,0,0-19.06,0,17.69,17.69,0,0,0-6.74,7,22.24,22.24,0,0,0-2.48,10.74,22,22,0,0,0,2.48,10.67,17.72,17.72,0,0,0,6.74,7.06,19.55,19.55,0,0,0,19.06,0Z"/><rect class="cls-1" x="185.61" y="55.86" width="21.37" height="4.87"/><polygon points="209.92 38.56 209.92 36.14 186 36.14 183.14 36.14 183.14 80.75 186 80.75 209.92 80.75 209.92 78.34 186 78.34 186 38.56 209.92 38.56"/><path d="M183.76,55.11c0,.8,0,1.61,0,2.41H207V55.11Z"/><path d="M183.76,60c0,.8,0,1.61,0,2.41H207V60Z"/></g></g></svg>