<svg xmlns="http://www.w3.org/2000/svg" viewBox="0 0 216.9 80.92"><defs><style>.cls-1{fill:#ffbf0f;}</style></defs><g id="Capa_2" data-name="Capa 2"><g id="Capa_1-2" data-name="Capa 1"><path d="M29.07.29V25.75h-6.2V10.48L17.18,25.75h-5L6.44,10.44V25.75H.24V.29H7.57l7.14,17.63L21.78.29Z"/><path d="M49.38,21.25h-9.5l-1.52,4.5H31.87L41.08.29h7.18l9.21,25.46H50.9Zm-1.59-4.79L44.63,7.14l-3.12,9.32Z"/><path d="M73.24,25.75,68,16.14H66.46v9.61h-6.2V.29H70.67A11.44,11.44,0,0,1,75.8,1.34,7.19,7.19,0,0,1,79,4.22,8,8,0,0,1,80,8.3a7.56,7.56,0,0,1-1.44,4.54,7.71,7.71,0,0,1-4.22,2.83l5.87,10.08Zm-6.78-14h3.85a3.52,3.52,0,0,0,2.55-.83,3.17,3.17,0,0,0,.86-2.36,3.06,3.06,0,0,0-.86-2.29,3.52,3.52,0,0,0-2.55-.83H66.46Z"/><path d="M98.67,25.75,90.11,14.51V25.75h-6.2V.29h6.2V11.46L98.59.29h7.29L96,12.77l10.23,13Z"/><path d="M115.38,5.26v5.15h8.31V15.2h-8.31v5.58h9.4v5h-15.6V.29h15.6v5Z"/><path d="M147.11.29v5h-6.74V25.75h-6.2V5.26h-6.75v-5Z"/><path d="M156.44.29V25.75h-6.21V.29Z"/><path d="M183.71,25.75H177.5L167.13,10V25.75h-6.2V.29h6.2L177.5,16.07V.29h6.21Z"/><path d="M205.1,8.34a4.72,4.72,0,0,0-2-1.94,6.45,6.45,0,0,0-3-.67,6.2,6.2,0,0,0-4.82,2A7.47,7.47,0,0,0,193.46,13a7.64,7.64,0,0,0,1.9,5.5,7,7,0,0,0,5.25,2,6.29,6.29,0,0,0,3.86-1.16,6.53,6.53,0,0,0,2.3-3.33H198.9V11.39h13.49v5.76a12.31,12.31,0,0,1-6.53,7.55,13,13,0,0,1-5.73,1.23,13.55,13.55,0,0,1-6.72-1.65,11.76,11.76,0,0,1-4.61-4.59A13.46,13.46,0,0,1,187.15,13a13.55,13.55,0,0,1,1.65-6.72,11.76,11.76,0,0,1,4.59-4.61A13.46,13.46,0,0,1,200.1,0a13.06,13.06,0,0,1,7.7,2.21A10.45,10.45,0,0,1,212,8.34Z"/></g><g id="Capa_2-2" data-name="Capa 2"><rect class="cls-1" x="1.26" y="35.82" width="5.51" height="44.42"/><rect class="cls-1" x="191.32" y="35.73" width="5.58" height="42.95"/><path d="M192.6,77.9h16.59v2.42H189.74V35.71h2.86Z"/><path d="M198,77.9H216.9v2.42H195.17V35.71H198Z"/><polygon class="cls-1" points="163.92 37.34 161.42 44.84 175.97 80.47 182.08 80.47 163.92 37.34"/><polygon points="180.61 80.47 183.25 80.47 166.06 35.68 163.41 35.68 146.22 80.47 148.87 80.47 161.78 46.84 174.69 80.47 177.33 80.47 163.1 43.39 164.74 39.13 180.61 80.47"/><path d="M34.6,49.12A22.53,22.53,0,0,0,22.69,37.21,21.89,21.89,0,0,0,14,35.45H0v44.8H2.46V37.91H5.51V80.25L14,80.19a22.87,22.87,0,0,0,8.68-1.79,22.32,22.32,0,0,0,7.12-4.77,22.78,22.78,0,0,0,4.8-7.09,22.32,22.32,0,0,0,0-17.42ZM32.34,65.51a20,20,0,0,1-4.28,6.29A20.37,20.37,0,0,1,14,77.68c-1.06,0-2.12,0-3.19,0H8V37.9l2.83,0c1.06,0,2.13,0,3.19,0a19.62,19.62,0,0,1,7.77,1.57A19.8,19.8,0,0,1,32.34,50a19.58,19.58,0,0,1,1.57,7.77A19.23,19.23,0,0,1,32.34,65.51Z"/><path d="M45.93,35.87V80.48H43.07V35.87Z"/><path d="M92.22,49a16.56,16.56,0,0,0-6.33-8,18.14,18.14,0,0,0-10.45-3,18.48,18.48,0,0,0-9.53,2.48,17.69,17.69,0,0,0-6.74,7.05,22.11,22.11,0,0,0-2.48,10.68,22.1,22.1,0,0,0,2.48,10.67,17.51,17.51,0,0,0,6.74,7,19.75,19.75,0,0,0,18.74.15,17.14,17.14,0,0,0,6.61-6.51A21,21,0,0,0,94,59.7H74.1V57.28H96.92v1.91a24,24,0,0,1-3,11.19,20.4,20.4,0,0,1-7.62,7.75,21.38,21.38,0,0,1-10.87,2.79A21.62,21.62,0,0,1,64.32,78,20.24,20.24,0,0,1,56.56,70a24.31,24.31,0,0,1-2.79-11.72,24.45,24.45,0,0,1,2.79-11.79,20.37,20.37,0,0,1,7.76-8.07,21.62,21.62,0,0,1,11.12-2.89,21.37,21.37,0,0,1,12.42,3.59A20.52,20.52,0,0,1,95.52,49Z"/><path d="M110.16,35.87V80.48H107.3V35.87Z"/><path d="M146.6,35.87v2.41H133.89v42.2H131V38.28H118.32V35.87Z"/></g></g></svg>