<svg xmlns="http://www.w3.org/2000/svg" viewBox="0 0 464.94 45.44"><defs><style>.cls-1{fill:#ffbf0f;}</style></defs><g id="Capa_2" data-name="Capa 2"><g id="Capa_1-2" data-name="Capa 1"><path d="M28.28,0V2.42H15.57V44.61H12.71V2.42H0V0Z"/><path d="M71.1,42.2H87.68v2.41H68.24V0H71.1Z"/><path d="M246.94,44.61l-11.43-19h-9.79v19h-2.86V0h12.26q7.44,0,11.16,3.5A12.12,12.12,0,0,1,250,12.77a12.49,12.49,0,0,1-2.9,8.49,13,13,0,0,1-8.42,4.1l11.7,19.25ZM225.72,23.2h9.53c3.94,0,6.89-1,8.83-2.86A10.12,10.12,0,0,0,247,12.77q0-10.23-11.89-10.23h-9.4Z"/><path d="M281.57,44.61,261,23.58v21h-2.86V0H261V21.23L281.57,0h3.69L263.52,22.37l21.8,22.24Z"/><path d="M353.22,0V2.42H340.51V44.61h-2.86V2.42H324.94V0Z"/><path d="M367.27,0V44.61h-2.86V0Z"/><path d="M460.24,13.54a16.54,16.54,0,0,0-6.33-8,18.21,18.21,0,0,0-10.45-3A18.58,18.58,0,0,0,433.93,5a17.69,17.69,0,0,0-6.74,7.05,22.11,22.11,0,0,0-2.48,10.68,22.11,22.11,0,0,0,2.48,10.68,17.48,17.48,0,0,0,6.74,7,19.71,19.71,0,0,0,18.74.16,17.24,17.24,0,0,0,6.61-6.52A21.1,21.1,0,0,0,462,24.21H442.12V21.8h22.82v1.9a24,24,0,0,1-3,11.19,20.33,20.33,0,0,1-7.62,7.75,21.28,21.28,0,0,1-10.87,2.8,21.72,21.72,0,0,1-11.12-2.89,20.37,20.37,0,0,1-7.76-8.07,24.35,24.35,0,0,1-2.79-11.73A24.48,24.48,0,0,1,424.58,11a20.37,20.37,0,0,1,7.76-8.07,23.07,23.07,0,0,1,23.54.7,20.55,20.55,0,0,1,7.66,10Z"/></g><g id="Capa_2-2" data-name="Capa 2"><polygon class="cls-1" points="195.95 1.66 193.45 9.15 208 44.79 214.11 44.79 195.95 1.66"/><polygon points="212.64 44.79 215.28 44.79 198.1 0 195.44 0 178.26 44.79 180.9 44.79 193.81 11.16 206.72 44.79 209.36 44.79 195.13 7.71 196.77 3.44 212.64 44.79"/><polygon class="cls-1" points="130.25 0.47 127.75 7.96 142.3 43.59 148.41 43.59 130.25 0.47"/><rect class="cls-1" x="168.51" width="5.58" height="43.65"/><path d="M169,0V43.66h-2.86V6L149.35,43.66h-2.29L130.22,6V43.66h-2.86V0h3l17.8,39.91L166,0Z"/><rect x="171.58" width="2.86" height="43.66"/><path d="M143.79,43.66,129,9.31a2.26,2.26,0,0,1,0,.26,35.05,35.05,0,0,1-.67,5.48l12.79,28.61h2.67"/><polygon class="cls-1" points="383.31 0.83 383.31 10.29 405.64 44.63 412.32 44.63 383.31 0.83"/><polygon points="414.01 0 411.15 0 411.15 39.78 384.97 0 382.11 0 382.11 44.55 384.97 44.55 384.97 15.59 404.02 44.64 407.14 44.64 384.97 10.95 384.97 4.64 411.15 44.64 414.01 44.64 414.01 44.64 414.01 44.64 414.01 0"/><rect class="cls-1" x="94.91" y="19.72" width="21.37" height="4.87"/><polygon points="119.21 2.42 119.21 0 95.29 0 92.43 0 92.43 44.61 95.29 44.61 119.21 44.61 119.21 42.2 95.29 42.2 95.29 2.42 119.21 2.42"/><path d="M93.05,19c0,.81,0,1.61,0,2.42h23.18V19Z"/><path d="M93.05,23.88c0,.81,0,1.61,0,2.42h23.18V23.88Z"/><rect class="cls-1" x="296.03" y="19.72" width="21.37" height="4.87"/><polygon points="320.33 2.42 320.33 0 296.42 0 293.56 0 293.56 44.61 296.42 44.61 320.33 44.61 320.33 42.2 296.42 42.2 296.42 2.42 320.33 2.42"/><path d="M294.17,19c0,.81,0,1.61,0,2.42h23.18V19Z"/><path d="M294.17,23.88c0,.81,0,1.61,0,2.42h23.18V23.88Z"/><rect class="cls-1" x="37.24" y="19.72" width="21.37" height="4.87"/><polygon points="61.55 2.42 61.55 0 37.63 0 34.77 0 34.77 44.61 37.63 44.61 61.55 44.61 61.55 42.2 37.63 42.2 37.63 2.42 61.55 2.42"/><path d="M35.39,19c0,.81,0,1.61,0,2.42H58.61V19Z"/><path d="M35.39,23.88c0,.81,0,1.61,0,2.42H58.61V23.88Z"/></g></g></svg>