<svg xmlns="http://www.w3.org/2000/svg" viewBox="0 0 144.17 44.79"><defs><style>.cls-1{fill:#ffbf0f;}</style></defs><g id="Capa_2" data-name="Capa 2"><g id="Capa_2-2" data-name="Capa 2"><polygon class="cls-1" points="79.42 1.66 76.92 9.15 91.47 44.79 97.58 44.79 79.42 1.66"/><polygon points="96.1 44.79 98.75 44.79 81.56 0 78.91 0 61.72 44.79 64.36 44.79 77.27 11.16 90.18 44.79 92.83 44.79 78.6 7.71 80.23 3.44 96.1 44.79"/><path d="M28.28.18V2.59H15.57v42.2H12.71V2.59H0V.18Z"/><path d="M37.94,2.59V21.21H55.73v2.42H37.94V42.37h19.7v2.42H35.08V.18H57.64V2.59Z"/><path d="M144.17,1.13V44.79h-2.86V7.1L124.53,44.79h-2.29L105.4,7.1V44.79h-2.86V1.13h3L123.39,41,141.18,1.13Z"/></g></g></svg>