<svg xmlns="http://www.w3.org/2000/svg" viewBox="0 0 224.77 94.48"><defs><style>.cls-1{font-size:36.27px;font-family:Poppins-Bold, Poppins;font-weight:700;}.cls-2{fill:#ffbf0f;}</style></defs><g id="Capa_2" data-name="Capa 2"><g id="Capa_1-2" data-name="Capa 1"><text class="cls-1" transform="translate(0 35.39)">QUIÉNES</text></g><g id="Capa_2-2" data-name="Capa 2"><polygon class="cls-2" points="94.55 50.78 92.05 58.27 106.6 93.9 112.71 93.9 94.55 50.78"/><rect class="cls-2" x="132.81" y="50.31" width="5.58" height="43.65"/><path d="M11.59,92.89a12.53,12.53,0,0,1-5-4.13A11.59,11.59,0,0,1,4.47,83h3a10.83,10.83,0,0,0,3.27,6.23c1.85,1.82,4.65,2.73,8.42,2.73a13,13,0,0,0,5.76-1.2,9.2,9.2,0,0,0,3.78-3.31A8.45,8.45,0,0,0,30,82.78a7.86,7.86,0,0,0-1.56-5.14,9.57,9.57,0,0,0-3.87-2.86,55.81,55.81,0,0,0-6.26-2,49.25,49.25,0,0,1-7-2.29,11,11,0,0,1-4.45-3.52,10.52,10.52,0,0,1-1.81-6.52A10.61,10.61,0,0,1,6.79,54.6a11.53,11.53,0,0,1,4.8-4.16,16.1,16.1,0,0,1,7.18-1.53,14.75,14.75,0,0,1,9.53,2.92A11.42,11.42,0,0,1,32.63,59H29.58a9.53,9.53,0,0,0-1.69-3.5,9.93,9.93,0,0,0-3.68-3,12.67,12.67,0,0,0-5.69-1.18A11.6,11.6,0,0,0,11,53.84a7.93,7.93,0,0,0-3,6.51,7.91,7.91,0,0,0,1.59,5.18,10,10,0,0,0,3.91,2.92,44.11,44.11,0,0,0,6.26,2,55.75,55.75,0,0,1,7,2.32,11,11,0,0,1,4.39,3.5,10.4,10.4,0,0,1,1.81,6.45,10.9,10.9,0,0,1-1.59,5.66,12,12,0,0,1-4.67,4.35,15.39,15.39,0,0,1-7.47,1.68A17.68,17.68,0,0,1,11.59,92.89Z"/><path d="M50.23,91.58a20.1,20.1,0,0,1-7.75-8.1,24.38,24.38,0,0,1-2.8-11.75,24.34,24.34,0,0,1,2.8-11.79,20.15,20.15,0,0,1,7.75-8.07A21.62,21.62,0,0,1,61.35,49a21.62,21.62,0,0,1,11.12,2.89,20.15,20.15,0,0,1,7.75,8.07A24.34,24.34,0,0,1,83,71.73a24.38,24.38,0,0,1-2.8,11.75,20.1,20.1,0,0,1-7.75,8.1,22.77,22.77,0,0,1-22.24,0Zm20.65-2.12a17.58,17.58,0,0,0,6.71-7.06A22.31,22.31,0,0,0,80,71.73,22.46,22.46,0,0,0,77.59,61a17.51,17.51,0,0,0-6.71-7.06,19.55,19.55,0,0,0-19.06,0A17.72,17.72,0,0,0,45.08,61,22.24,22.24,0,0,0,42.6,71.73,22.1,22.1,0,0,0,45.08,82.4a17.78,17.78,0,0,0,6.74,7.06,19.62,19.62,0,0,0,19.06,0Z"/><path d="M133.29,50.31V94h-2.86V56.28L113.65,94h-2.29L94.52,56.28V94H91.66V50.31h3l17.8,39.91L130.3,50.31Z"/><rect x="135.88" y="50.31" width="2.86" height="43.66"/><path d="M108.09,94,93.29,59.62a2.26,2.26,0,0,1,0,.26,35.05,35.05,0,0,1-.67,5.48L105.42,94h2.67"/><path d="M156.78,91.58a20.19,20.19,0,0,1-7.76-8.1,24.48,24.48,0,0,1-2.79-11.75A24.45,24.45,0,0,1,149,59.94a20.24,20.24,0,0,1,7.76-8.07,22.84,22.84,0,0,1,22.24,0,20.21,20.21,0,0,1,7.75,8.07,24.34,24.34,0,0,1,2.8,11.79,24.38,24.38,0,0,1-2.8,11.75,20.17,20.17,0,0,1-7.75,8.1,22.77,22.77,0,0,1-22.24,0Zm20.65-2.12a17.55,17.55,0,0,0,6.7-7.06,22.2,22.2,0,0,0,2.45-10.67A22.35,22.35,0,0,0,184.13,61a17.49,17.49,0,0,0-6.7-7.06,19.55,19.55,0,0,0-19.06,0A17.72,17.72,0,0,0,151.63,61a22.24,22.24,0,0,0-2.48,10.74,22.1,22.1,0,0,0,2.48,10.67,17.78,17.78,0,0,0,6.74,7.06,19.62,19.62,0,0,0,19.06,0Z"/><path d="M203.48,92.89a12.46,12.46,0,0,1-5-4.13A11.59,11.59,0,0,1,196.36,83h3a10.83,10.83,0,0,0,3.27,6.23q2.76,2.73,8.42,2.73a12.92,12.92,0,0,0,5.75-1.2,9.2,9.2,0,0,0,3.78-3.31,8.46,8.46,0,0,0,1.34-4.64,7.86,7.86,0,0,0-1.56-5.14,9.57,9.57,0,0,0-3.87-2.86,55.81,55.81,0,0,0-6.26-2,48.39,48.39,0,0,1-7-2.29,11,11,0,0,1-4.45-3.52A10.52,10.52,0,0,1,197,60.41a10.61,10.61,0,0,1,1.68-5.81,11.47,11.47,0,0,1,4.8-4.16,16.07,16.07,0,0,1,7.18-1.53,14.75,14.75,0,0,1,9.53,2.92A11.36,11.36,0,0,1,224.51,59h-3a9.35,9.35,0,0,0-1.68-3.5,9.88,9.88,0,0,0-3.69-3,12.6,12.6,0,0,0-5.68-1.18,11.6,11.6,0,0,0-7.5,2.45,7.9,7.9,0,0,0-3,6.51,7.91,7.91,0,0,0,1.59,5.18,10,10,0,0,0,3.9,2.92,45,45,0,0,0,6.26,2,55.42,55.42,0,0,1,7,2.32,11,11,0,0,1,4.39,3.5,10.46,10.46,0,0,1,1.81,6.45,10.9,10.9,0,0,1-1.59,5.66,12,12,0,0,1-4.67,4.35A15.44,15.44,0,0,1,211,94.41,17.68,17.68,0,0,1,203.48,92.89Z"/></g></g></svg>