<svg xmlns="http://www.w3.org/2000/svg" viewBox="0 0 289.85 44.85"><defs><style>.cls-1{fill:#ffbf0f;}</style></defs><g id="Capa_2" data-name="Capa 2"><g id="Layer_1" data-name="Layer 1"><rect class="cls-1" x="265.43" y="19.84" width="24.37" height="5.46"/><path d="M25.77,25.5a10.94,10.94,0,0,1,2.64,7.31,11.7,11.7,0,0,1-1.62,6.13A11.08,11.08,0,0,1,22,43.19a17.71,17.71,0,0,1-7.79,1.56H0V.14H13.92Q20.6.14,24,3.22a10.28,10.28,0,0,1,3.4,8,10.09,10.09,0,0,1-2.29,6.89,11.39,11.39,0,0,1-5.84,3.59A10.87,10.87,0,0,1,25.77,25.5ZM2.86,20.41H14c3.35,0,5.92-.79,7.73-2.38a8.32,8.32,0,0,0,2.7-6.58A8.12,8.12,0,0,0,21.8,5C20,3.47,17.33,2.68,13.73,2.68H2.86ZM22.46,39.7a8.74,8.74,0,0,0,3.09-7.09,8.76,8.76,0,0,0-3.15-7.08q-3.15-2.64-8.61-2.64H2.86V42.27H14C17.58,42.27,20.41,41.42,22.46,39.7Z"/><path d="M60.88,44.75l-11.44-19H39.65v19H36.79V.14H49.06q7.44,0,11.15,3.5a12.12,12.12,0,0,1,3.72,9.27A12.49,12.49,0,0,1,61,21.4a13.07,13.07,0,0,1-8.42,4.1L64.31,44.75ZM39.65,23.34h9.54c3.94,0,6.88-1,8.83-2.86a10.11,10.11,0,0,0,2.92-7.57q0-10.23-11.88-10.23H39.65Z"/><path d="M97.74,33.31H76.58L72.32,44.75H69.2L85.6,1.16h3.18l16.33,43.59H102Zm-.89-2.41-9.66-26-9.72,26Z"/><path d="M144.19,44.75h-2.86L115.15,4.84V44.75h-2.86V.2h2.86L141.33,40V.2h2.86Z"/><path d="M184.64,6.05q6.13,5.91,6.13,16.46t-6.13,16.4q-6.13,5.84-17.44,5.84H154.68V.14H167.2Q178.51.14,184.64,6.05Zm-2.06,31q5.26-5.24,5.27-14.58T182.58,7.83Q177.3,2.55,167.2,2.56h-9.66V42.34h9.66Q177.3,42.34,182.58,37.09Z"/><path d="M202.27.14V44.75h-2.85V.14Z"/><path d="M244.66,44.75H241.8L215.62,4.84V44.75h-2.86V.2h2.86L241.8,40V.2h2.86Z"/><polygon points="266.83 18.63 265.43 18.63 265.43 21.09 266.83 21.09 289.81 21.09 289.81 18.63 266.83 18.63"/><path d="M265.43,26.55h21.92l-.06,11.14a21.86,21.86,0,0,1-6,3.43,19.09,19.09,0,0,1-6.89,1.28,19.37,19.37,0,0,1-7.74-1.57A20.3,20.3,0,0,1,256,30.16a19.84,19.84,0,0,1,0-15.47A20.23,20.23,0,0,1,266.7,4a19.4,19.4,0,0,1,7.74-1.57,18.29,18.29,0,0,1,7.07,1.32A22.67,22.67,0,0,1,286,6.25c.55.38,1.08.79,1.6,1.23l.78.69,1.52-2a25.33,25.33,0,0,0-7.49-4.81A24.38,24.38,0,0,0,274.44,0a21.83,21.83,0,0,0-8.75,1.77,22.35,22.35,0,0,0-11.91,11.91A21.83,21.83,0,0,0,252,22.43a21.83,21.83,0,0,0,1.77,8.75,22.44,22.44,0,0,0,11.91,11.91,22,22,0,0,0,8.75,1.76,23.58,23.58,0,0,0,7.95-1.4,19.81,19.81,0,0,0,7-4.27h0l.38-.35.05-12.27h0V25.3h0V24H265.43Z"/></g></g></svg>