<svg xmlns="http://www.w3.org/2000/svg" viewBox="0 0 340.17 45.5"><defs><style>.cls-1{fill:#ffbf0f;}</style></defs><g id="Capa_2" data-name="Capa 2"><g id="Layer_1" data-name="Layer 1"><polygon class="cls-1" points="172.26 1.95 169.77 9.45 184.32 45.23 190.18 45.23 172.26 1.95"/><path d="M23.32,22.21q-3.67,3.27-10.93,3.27H2.86V45.06H0V.44H12.39q7.38,0,11,3.4A12,12,0,0,1,27,13Q27,18.94,23.32,22.21ZM24.15,13q0-4.89-2.8-7.47C19.49,3.84,16.5,3,12.39,3H2.86v20h9.53Q24.15,22.94,24.15,13Z"/><path d="M60,33.62H38.83L34.57,45.06H31.46L47.85,1.46H51l16.33,43.6H64.25ZM59.1,31.2l-9.66-26-9.72,26Z"/><path d="M75.53,11a20.48,20.48,0,0,1,7.62-8.11A20.83,20.83,0,0,1,94.05,0a22.26,22.26,0,0,1,12.84,3.56,20.49,20.49,0,0,1,7.63,10h-3.31a16.33,16.33,0,0,0-6.32-8,19.08,19.08,0,0,0-10.84-3A18.22,18.22,0,0,0,84.71,5a17.14,17.14,0,0,0-6.61,7,22.9,22.9,0,0,0-2.41,10.77A22.38,22.38,0,0,0,78.1,33.46a17.44,17.44,0,0,0,6.61,7A18,18,0,0,0,94.05,43a19.08,19.08,0,0,0,10.84-3,16.33,16.33,0,0,0,6.32-8h3.31a20.49,20.49,0,0,1-7.63,10A22.18,22.18,0,0,1,94.05,45.5a20.9,20.9,0,0,1-10.9-2.89,20.3,20.3,0,0,1-7.62-8.07,24.42,24.42,0,0,1-2.77-11.73A24.54,24.54,0,0,1,75.53,11Z"/><path d="M146.86,45.06,126.33,24v21h-2.86V.44h2.86V21.67L146.86.44h3.69L128.81,22.81l21.8,22.25Z"/><path d="M229.73,13.6a16.48,16.48,0,0,0-6.33-8,18.18,18.18,0,0,0-10.45-3,18.6,18.6,0,0,0-9.53,2.47,17.78,17.78,0,0,0-6.74,7.06,22.1,22.1,0,0,0-2.48,10.67,22.11,22.11,0,0,0,2.48,10.68,17.48,17.48,0,0,0,6.74,7,19.73,19.73,0,0,0,18.75.16,17.19,17.19,0,0,0,6.6-6.51,21,21,0,0,0,2.74-9.88H211.62V21.86h22.81v1.91a23.83,23.83,0,0,1-3,11.18,20.19,20.19,0,0,1-7.62,7.75A21.23,21.23,0,0,1,213,45.5a21.62,21.62,0,0,1-11.12-2.89,20.34,20.34,0,0,1-7.75-8.07,24.21,24.21,0,0,1-2.8-11.73A24.33,24.33,0,0,1,194.08,11,20.3,20.3,0,0,1,201.83,3,21.72,21.72,0,0,1,213,.06a21.5,21.5,0,0,1,12.43,3.59,20.59,20.59,0,0,1,7.65,10Z"/><path d="M245.93.44V45.06h-2.86V.44Z"/><path d="M288.32,45.06h-2.86L259.28,5.15V45.06h-2.86V.51h2.86l26.18,39.78V.51h2.86Z"/><path d="M335.47,13.6a16.52,16.52,0,0,0-6.32-8,18.23,18.23,0,0,0-10.45-3,18.64,18.64,0,0,0-9.54,2.47,17.76,17.76,0,0,0-6.73,7.06A22,22,0,0,0,300,22.81a22,22,0,0,0,2.48,10.68,17.46,17.46,0,0,0,6.73,7,19.73,19.73,0,0,0,18.75.16,17.21,17.21,0,0,0,6.61-6.51,21.14,21.14,0,0,0,2.73-9.88H317.36V21.86h22.81v1.91a23.83,23.83,0,0,1-3,11.18,20.29,20.29,0,0,1-7.63,7.75,21.22,21.22,0,0,1-10.86,2.8,21.68,21.68,0,0,1-11.13-2.89,20.41,20.41,0,0,1-7.75-8.07A24.33,24.33,0,0,1,297,22.81,24.44,24.44,0,0,1,299.82,11,20.37,20.37,0,0,1,307.57,3,21.78,21.78,0,0,1,318.7.06a21.49,21.49,0,0,1,12.42,3.59,20.6,20.6,0,0,1,7.66,10Z"/><polygon points="188.95 45.23 191.6 45.23 174.41 0.45 171.75 0.45 154.57 45.23 157.21 45.23 170.12 11.6 183.03 45.23 185.68 45.23 171.45 8.15 173.08 3.89 188.95 45.23"/></g></g></svg>