<svg xmlns="http://www.w3.org/2000/svg" viewBox="0 0 505.38 45.56"><defs><style>.cls-1{fill:#ffbf0f;}</style></defs><g id="Capa_2" data-name="Capa 2"><g id="Layer_1" data-name="Layer 1"><path d="M7.12,44a12.46,12.46,0,0,1-5.05-4.13A11.59,11.59,0,0,1,0,34.06H3a10.83,10.83,0,0,0,3.27,6.23Q9,43,14.68,43a12.92,12.92,0,0,0,5.75-1.2,9.2,9.2,0,0,0,3.78-3.31,8.46,8.46,0,0,0,1.34-4.64A7.91,7.91,0,0,0,24,28.72a9.72,9.72,0,0,0-3.88-2.86,56.8,56.8,0,0,0-6.26-2A48.63,48.63,0,0,1,6.9,21.54,11,11,0,0,1,2.45,18,10.52,10.52,0,0,1,.64,11.5,10.59,10.59,0,0,1,2.32,5.69a11.47,11.47,0,0,1,4.8-4.16A16.07,16.07,0,0,1,14.3,0a14.75,14.75,0,0,1,9.53,2.92,11.37,11.37,0,0,1,4.32,7.18h-3a9.38,9.38,0,0,0-1.68-3.49,9.9,9.9,0,0,0-3.69-3A12.78,12.78,0,0,0,14,2.48,11.54,11.54,0,0,0,6.55,4.93a7.9,7.9,0,0,0-3,6.51,7.91,7.91,0,0,0,1.58,5.18A10.07,10.07,0,0,0,9,19.54a44.54,44.54,0,0,0,6.26,2,56,56,0,0,1,7,2.32,10.88,10.88,0,0,1,4.39,3.5,10.46,10.46,0,0,1,1.81,6.45,10.86,10.86,0,0,1-1.59,5.65,12,12,0,0,1-4.67,4.36,15.44,15.44,0,0,1-7.47,1.68A17.68,17.68,0,0,1,7.12,44Z"/><path d="M45.75,42.67A20.23,20.23,0,0,1,38,34.57a24.5,24.5,0,0,1-2.79-11.76A24.44,24.44,0,0,1,38,11,20.28,20.28,0,0,1,45.75,3,21.69,21.69,0,0,1,56.88.06,21.68,21.68,0,0,1,68,3,20.21,20.21,0,0,1,75.75,11a24.44,24.44,0,0,1,2.8,11.78,24.5,24.5,0,0,1-2.8,11.76A20.17,20.17,0,0,1,68,42.67a21.67,21.67,0,0,1-11.12,2.89A21.68,21.68,0,0,1,45.75,42.67Zm20.66-2.13a17.46,17.46,0,0,0,6.7-7,22.33,22.33,0,0,0,2.45-10.68,22.49,22.49,0,0,0-2.45-10.74,17.46,17.46,0,0,0-6.7-7A19.57,19.57,0,0,0,47.34,5a17.67,17.67,0,0,0-6.73,7.05,22.27,22.27,0,0,0-2.48,10.74,22.11,22.11,0,0,0,2.48,10.68,17.67,17.67,0,0,0,6.73,7,19.57,19.57,0,0,0,19.07,0Z"/><path d="M88.17,11A20.57,20.57,0,0,1,95.8,2.92,20.81,20.81,0,0,1,106.7,0a22.23,22.23,0,0,1,12.83,3.56,20.37,20.37,0,0,1,7.63,10h-3.3a16.34,16.34,0,0,0-6.33-8,19,19,0,0,0-10.83-3A18.19,18.19,0,0,0,97.36,5a17.14,17.14,0,0,0-6.61,7,22.9,22.9,0,0,0-2.42,10.77,22.38,22.38,0,0,0,2.42,10.65,17.44,17.44,0,0,0,6.61,7A18,18,0,0,0,106.7,43a19,19,0,0,0,10.83-3,16.32,16.32,0,0,0,6.33-8h3.3a20.34,20.34,0,0,1-7.63,10A22.15,22.15,0,0,1,106.7,45.5a20.88,20.88,0,0,1-10.9-2.89,20.4,20.4,0,0,1-7.63-8.07,24.53,24.53,0,0,1-2.76-11.73A24.65,24.65,0,0,1,88.17,11Z"/><path d="M139,.44V45.06h-2.86V.44Z"/><path d="M192.17,42.64h16.59v2.42H189.31V.44h2.86Z"/><path d="M234.14,11a20.57,20.57,0,0,1,7.63-8.11A20.81,20.81,0,0,1,252.67,0a22.28,22.28,0,0,1,12.84,3.56,20.41,20.41,0,0,1,7.62,10h-3.3a16.29,16.29,0,0,0-6.33-8,19,19,0,0,0-10.83-3A18.19,18.19,0,0,0,243.33,5a17.14,17.14,0,0,0-6.61,7,22.9,22.9,0,0,0-2.42,10.77,22.38,22.38,0,0,0,2.42,10.65,17.44,17.44,0,0,0,6.61,7A18,18,0,0,0,252.67,43a19,19,0,0,0,10.83-3,16.26,16.26,0,0,0,6.33-8h3.3a20.38,20.38,0,0,1-7.62,10,22.21,22.21,0,0,1-12.84,3.56,20.88,20.88,0,0,1-10.9-2.89,20.4,20.4,0,0,1-7.63-8.07,24.53,24.53,0,0,1-2.76-11.73A24.65,24.65,0,0,1,234.14,11Z"/><path d="M290.86,42.67a20.17,20.17,0,0,1-7.75-8.1,24.39,24.39,0,0,1-2.8-11.76A24.33,24.33,0,0,1,283.11,11,20.21,20.21,0,0,1,290.86,3,22.77,22.77,0,0,1,313.1,3,20.24,20.24,0,0,1,320.86,11a24.44,24.44,0,0,1,2.79,11.78,24.5,24.5,0,0,1-2.79,11.76,20.19,20.19,0,0,1-7.76,8.1,22.84,22.84,0,0,1-22.24,0Zm20.65-2.13a17.49,17.49,0,0,0,6.71-7,22.33,22.33,0,0,0,2.45-10.68,22.49,22.49,0,0,0-2.45-10.74,17.49,17.49,0,0,0-6.71-7,19.55,19.55,0,0,0-19.06,0,17.76,17.76,0,0,0-6.74,7.05,22.27,22.27,0,0,0-2.48,10.74,22.11,22.11,0,0,0,2.48,10.68,17.76,17.76,0,0,0,6.74,7,19.55,19.55,0,0,0,19.06,0Z"/><path d="M364.2,45.06h-2.86L335.15,5.15V45.06h-2.86V.51h2.86l26.19,39.78V.51h2.86Z"/><path d="M399.34.44V2.86H386.63v42.2h-2.86V2.86H371.06V.44Z"/><rect class="cls-1" x="407.92" y="20.22" width="21.37" height="4.87"/><polygon points="432.23 2.92 432.23 0.51 408.31 0.51 405.45 0.51 405.45 45.12 408.31 45.12 432.23 45.12 432.23 42.7 408.31 42.7 408.31 2.92 432.23 2.92"/><path d="M406.07,19.47c0,.81,0,1.61,0,2.42h23.18V19.47Z"/><path d="M406.07,24.39c0,.81,0,1.61,0,2.42h23.18V24.39Z"/><path d="M470.24,45.06h-2.86L441.2,5.15V45.06h-2.86V.51h2.86l26.18,39.78V.51h2.86Z"/><path d="M505.38.44V2.86H492.67v42.2h-2.86V2.86H477.1V.44Z"/><polygon class="cls-1" points="164.49 1.78 161.99 9.27 176.54 44.88 182.41 45.06 164.49 1.78"/><polygon points="181.18 45.06 183.82 45.06 166.63 0.27 163.98 0.27 146.79 45.06 149.44 45.06 162.35 11.43 175.25 45.06 177.9 45.06 163.67 7.98 165.31 3.72 181.18 45.06"/></g></g></svg>