<svg xmlns="http://www.w3.org/2000/svg" viewBox="0 0 125.71 44.62"><defs><style>.cls-1{fill:#ffbf0f;}</style></defs><g id="Capa_2" data-name="Capa 2"><g id="Layer_1" data-name="Layer 1"><rect class="cls-1" x="77.68" y="20.63" width="42.49" height="5.46" transform="translate(75.56 122.28) rotate(-90)"/><path d="M55.16,0,42.83,44.61H39.72L27.52,4.45,15.12,44.61h-3L0,0H3.05L13.73,40.61,26,0h3.18L41.31,40.86,52.05,0Z"/><path d="M65.14,2.41V21H82.93v2.42H65.14V42.2h19.7v2.41H62.28V0H84.84V2.41Z"/><path d="M125.06,28a13.39,13.39,0,0,0-1.79-3.49,12.47,12.47,0,0,0-2.78-2.79A13.16,13.16,0,0,0,118,20.31a10.28,10.28,0,0,0,3.56-3.5A10.92,10.92,0,0,0,123.15,11a10.5,10.5,0,0,0-.89-4.29,11.92,11.92,0,0,0-2.36-3.5A11.08,11.08,0,0,0,116.38.86,11.21,11.21,0,0,0,112.06,0H94.25v44.6h2.8V2.69h2.61V44.6h1.15l.17,0H113.1a12.33,12.33,0,0,0,4.92-1,12.64,12.64,0,0,0,6.7-6.71,12.6,12.6,0,0,0,.34-8.89ZM102.24,2.69h9.82a8.1,8.1,0,0,1,3.27.66,8.6,8.6,0,0,1,4.47,4.44,8,8,0,0,1,.67,3.25,7.86,7.86,0,0,1-.67,3.19,8.55,8.55,0,0,1-4.49,4.44,8.21,8.21,0,0,1-3.25.66h-9.82Zm20,33.21A9.94,9.94,0,0,1,117,41.21a9.59,9.59,0,0,1-3.87.78H102.24V22h10.47a1.35,1.35,0,0,0,.39.05,9.59,9.59,0,0,1,3.84.78A10.26,10.26,0,0,1,120.12,25a9.93,9.93,0,0,1,2.13,3.18A9.62,9.62,0,0,1,123,32,9.74,9.74,0,0,1,122.25,35.9Z"/></g></g></svg>