<svg xmlns="http://www.w3.org/2000/svg" viewBox="0 0 806.56 57.64"><defs><style>.cls-1{fill:#ffbf0f;}</style></defs><g id="Capa_2" data-name="Capa 2"><g id="Layer_1" data-name="Layer 1"><path d="M23.32,34.29q-3.67,3.27-10.93,3.27H2.86V57.13H0V12.52H12.39q7.38,0,11,3.4A12,12,0,0,1,27,25.1Q27,31,23.32,34.29Zm.83-9.19q0-4.89-2.8-7.47t-9-2.57H2.86V35h9.53Q24.15,35,24.15,25.1Z"/><path d="M58.78,57.13l-11.44-19H37.56v19H34.7V12.52H47q7.44,0,11.16,3.49a12.17,12.17,0,0,1,3.71,9.28,12.51,12.51,0,0,1-2.89,8.49,13,13,0,0,1-8.42,4.1L62.21,57.13ZM37.56,35.71h9.53q5.91,0,8.83-2.85a10.12,10.12,0,0,0,2.93-7.57q0-10.23-11.89-10.23h-9.4Z"/><path d="M79.12,54.75a20.32,20.32,0,0,1-7.76-8.1,24.55,24.55,0,0,1-2.79-11.76A24.45,24.45,0,0,1,71.36,23.1,20.37,20.37,0,0,1,79.12,15a22.84,22.84,0,0,1,22.24,0,20.34,20.34,0,0,1,7.75,8.07,24.34,24.34,0,0,1,2.8,11.79,24.44,24.44,0,0,1-2.8,11.76,20.29,20.29,0,0,1-7.75,8.1,22.84,22.84,0,0,1-22.24,0Zm20.65-2.13a17.52,17.52,0,0,0,6.71-7.06,22.29,22.29,0,0,0,2.44-10.67,22.46,22.46,0,0,0-2.44-10.74,17.64,17.64,0,0,0-6.71-7.06,19.62,19.62,0,0,0-19.06,0A17.78,17.78,0,0,0,74,24.15a22.24,22.24,0,0,0-2.48,10.74A22.07,22.07,0,0,0,74,45.56a17.65,17.65,0,0,0,6.74,7.06,19.55,19.55,0,0,0,19.06,0Z"/><path d="M167.89,12.52v27.9q0,7.56,3.44,11.09T180.67,55q5.85,0,9.21-3.49t3.37-11.12V12.52h2.86V40.35q0,8.71-4.19,13t-11.25,4.26c-4.7,0-8.49-1.43-11.34-4.29S165,46.12,165,40.35V12.52Z"/><path d="M207.26,23.1a20.54,20.54,0,0,1,18.53-11,22.23,22.23,0,0,1,12.83,3.56,20.42,20.42,0,0,1,7.63,10H243a16.34,16.34,0,0,0-6.33-8,19,19,0,0,0-10.83-3,18.19,18.19,0,0,0-9.34,2.44,17.17,17.17,0,0,0-6.61,7.06,22.87,22.87,0,0,0-2.42,10.77,22.34,22.34,0,0,0,2.42,10.64,17.53,17.53,0,0,0,6.61,7A18,18,0,0,0,225.79,55a19,19,0,0,0,10.83-3A16.34,16.34,0,0,0,243,44h3.3a20.42,20.42,0,0,1-7.63,10,22.23,22.23,0,0,1-12.83,3.56,20.89,20.89,0,0,1-10.9-2.9,20.27,20.27,0,0,1-7.63-8.07,24.52,24.52,0,0,1-2.76-11.72A24.66,24.66,0,0,1,207.26,23.1Z"/><path d="M256.2,23.1a20.51,20.51,0,0,1,18.52-11,22.28,22.28,0,0,1,12.84,3.56,20.46,20.46,0,0,1,7.62,10h-3.3a16.29,16.29,0,0,0-6.33-8,19,19,0,0,0-10.83-3,18.19,18.19,0,0,0-9.34,2.44,17.17,17.17,0,0,0-6.61,7.06,22.87,22.87,0,0,0-2.42,10.77,22.34,22.34,0,0,0,2.42,10.64,17.53,17.53,0,0,0,6.61,7A18,18,0,0,0,274.72,55a19,19,0,0,0,10.83-3,16.29,16.29,0,0,0,6.33-8h3.3a20.46,20.46,0,0,1-7.62,10,22.28,22.28,0,0,1-12.84,3.56,20.89,20.89,0,0,1-10.9-2.9,20.17,20.17,0,0,1-7.62-8.07,24.41,24.41,0,0,1-2.77-11.72A24.55,24.55,0,0,1,256.2,23.1Z"/><path d="M307,12.52V57.13h-2.86V12.52Z"/><path d="M326.26,54.75a20.32,20.32,0,0,1-7.76-8.1,24.55,24.55,0,0,1-2.79-11.76A24.45,24.45,0,0,1,318.5,23.1,20.37,20.37,0,0,1,326.26,15a22.84,22.84,0,0,1,22.24,0,20.34,20.34,0,0,1,7.75,8.07,24.34,24.34,0,0,1,2.8,11.79,24.44,24.44,0,0,1-2.8,11.76,20.29,20.29,0,0,1-7.75,8.1,22.84,22.84,0,0,1-22.24,0Zm20.65-2.13a17.52,17.52,0,0,0,6.71-7.06,22.29,22.29,0,0,0,2.44-10.67,22.46,22.46,0,0,0-2.44-10.74,17.64,17.64,0,0,0-6.71-7.06,19.62,19.62,0,0,0-19.06,0,17.78,17.78,0,0,0-6.74,7.06,22.24,22.24,0,0,0-2.48,10.74,22.07,22.07,0,0,0,2.48,10.67,17.65,17.65,0,0,0,6.74,7.06,19.55,19.55,0,0,0,19.06,0ZM343.35,2.8,330.9,10.68V8.33L343.35,0Z"/><path d="M399.59,57.13h-2.86L370.55,17.22V57.13h-2.86V12.58h2.86l26.18,39.78V12.58h2.86Z"/><path d="M453.29,45.69H432.13l-4.26,11.44h-3.11l16.39-43.59h3.18l16.33,43.59h-3.11Zm-.89-2.41-9.66-26-9.72,26Z"/><path d="M470.45,12.52v27.9q0,7.56,3.43,11.09T483.22,55q5.85,0,9.22-3.49t3.36-11.12V12.52h2.86V40.35q0,8.71-4.19,13t-11.25,4.26q-7.05,0-11.34-4.29t-4.29-12.94V12.52Z"/><path d="M538.79,18.43q6.13,5.91,6.14,16.46t-6.14,16.39q-6.12,5.85-17.44,5.85H508.83V12.52h12.52Q532.66,12.52,538.79,18.43Zm-2.06,31Q542,44.24,542,34.89t-5.27-14.68q-5.28-5.28-15.38-5.28h-9.66V54.72h9.66Q531.46,54.72,536.73,49.47Z"/><path d="M556.43,12.52V57.13h-2.86V12.52Z"/><path d="M575.68,54.75a20.36,20.36,0,0,1-7.75-8.1,24.55,24.55,0,0,1-2.79-11.76,24.45,24.45,0,0,1,2.79-11.79A20.41,20.41,0,0,1,575.68,15a22.86,22.86,0,0,1,22.25,0,20.34,20.34,0,0,1,7.75,8.07,24.45,24.45,0,0,1,2.8,11.79,24.56,24.56,0,0,1-2.8,11.76,20.29,20.29,0,0,1-7.75,8.1,22.86,22.86,0,0,1-22.25,0Zm20.66-2.13a17.43,17.43,0,0,0,6.7-7.06,22.29,22.29,0,0,0,2.45-10.67A22.46,22.46,0,0,0,603,24.15a17.55,17.55,0,0,0-6.7-7.06,19.64,19.64,0,0,0-19.07,0,17.76,17.76,0,0,0-6.73,7.06,22.13,22.13,0,0,0-2.48,10.74,22,22,0,0,0,2.48,10.67,17.63,17.63,0,0,0,6.73,7.06,19.57,19.57,0,0,0,19.07,0Z"/><path d="M660.58,12.52V57.13h-2.85V12.52Z"/><path d="M676.41,56.05a12.38,12.38,0,0,1-5-4.13,11.56,11.56,0,0,1-2.07-5.78h3a10.8,10.8,0,0,0,3.27,6.22q2.76,2.74,8.42,2.74a12.79,12.79,0,0,0,5.75-1.21,9.13,9.13,0,0,0,3.78-3.31A8.43,8.43,0,0,0,694.84,46a7.89,7.89,0,0,0-1.56-5.15,9.62,9.62,0,0,0-3.88-2.86,54.73,54.73,0,0,0-6.26-2,51.3,51.3,0,0,1-6.95-2.29,11,11,0,0,1-4.45-3.53,10.51,10.51,0,0,1-1.81-6.51,10.62,10.62,0,0,1,1.68-5.82,11.53,11.53,0,0,1,4.8-4.16,16.07,16.07,0,0,1,7.18-1.53A14.7,14.7,0,0,1,693.12,15a11.34,11.34,0,0,1,4.32,7.18h-3.05a9.42,9.42,0,0,0-1.68-3.5A9.88,9.88,0,0,0,689,15.73a12.76,12.76,0,0,0-5.68-1.18,11.6,11.6,0,0,0-7.5,2.45,7.9,7.9,0,0,0-3.05,6.51,7.91,7.91,0,0,0,1.59,5.18,10,10,0,0,0,3.9,2.93,47.85,47.85,0,0,0,6.26,2,53.83,53.83,0,0,1,7,2.32,10.85,10.85,0,0,1,4.39,3.49,10.46,10.46,0,0,1,1.81,6.45,10.87,10.87,0,0,1-1.59,5.66,11.93,11.93,0,0,1-4.67,4.35A15.44,15.44,0,0,1,684,57.58,17.53,17.53,0,0,1,676.41,56.05Z"/><path d="M708.88,12.52v27.9q0,7.56,3.43,11.09T721.65,55q5.85,0,9.22-3.49t3.37-11.12V12.52h2.86V40.35q0,8.71-4.2,13t-11.25,4.26q-7,0-11.34-4.29T706,40.35V12.52Z"/><path d="M772.56,45.69H751.4l-4.26,11.44H744l16.4-43.59h3.18l16.33,43.59h-3.12Zm-.89-2.41-9.66-26-9.72,26Z"/><path d="M790,54.72h16.59v2.41H787.11V12.52H790Z"/><rect class="cls-1" x="121.54" y="13.03" width="5.51" height="44.42"/><polygon class="cls-1" points="632.11 55.62 629.61 48.13 644.16 12.5 650.27 12.49 632.11 55.62"/><polygon points="648.79 12.5 651.44 12.5 634.25 57.28 631.6 57.28 614.41 12.5 617.06 12.5 629.97 46.13 642.87 12.5 645.52 12.5 631.29 49.58 632.92 53.84 648.79 12.5"/><path d="M154.88,26.33a22.85,22.85,0,0,0-4.8-7.12A22.61,22.61,0,0,0,143,14.42a21.73,21.73,0,0,0-8.7-1.77h-14v44.8h2.46V15.11h3.05V57.45l8.49-.05A22.73,22.73,0,0,0,143,55.6a22.41,22.41,0,0,0,7.12-4.76,22.82,22.82,0,0,0,4.8-7.1,22.41,22.41,0,0,0,0-17.41Zm-2.26,16.38A20.09,20.09,0,0,1,148.34,49,20.68,20.68,0,0,1,142,53.26a20,20,0,0,1-7.75,1.62c-1.06,0-2.13.06-3.19.06h-2.82V15.11c.94,0,1.89,0,2.83,0s2.13,0,3.19,0A19.37,19.37,0,0,1,142,16.63a20.06,20.06,0,0,1,6.34,4.25,20.41,20.41,0,0,1,4.25,6.34A19.62,19.62,0,0,1,154.18,35,19.18,19.18,0,0,1,152.62,42.71Z"/></g></g></svg>